<mxfile host="app.diagrams.net" modified="2024-03-31T08:45:12.986Z" agent="Mozilla/5.0 (Windows NT 10.0; Win64; x64) AppleWebKit/537.36 (KHTML, like Gecko) Chrome/123.0.0.0 Safari/537.36" version="24.2.1" etag="9jDw1OC2drzn2hRbiLAQ" type="github">
  <diagram name="페이지-1" id="X6eKTKBx-vMiyNh54gQV">
    <mxGraphModel>
      <root>
        <mxCell id="0" />
        <mxCell id="1" parent="0" />
      </root>
    </mxGraphModel>
  </diagram>
</mxfile>
